<svg width="461" height="202" viewBox="0 0 461 202" fill="none" xmlns="http://www.w3.org/2000/svg">
<path d="M196.063 114.269C196.063 117.186 195.334 120.352 193.876 123.769C192.459 127.144 190.209 130.477 187.126 133.769C184.043 137.019 180.105 139.665 175.313 141.707C170.522 143.748 164.938 144.769 158.563 144.769C153.73 144.769 149.334 144.311 145.376 143.394C141.418 142.477 137.813 141.061 134.563 139.144C131.355 137.186 128.397 134.623 125.688 131.457C123.272 128.582 121.209 125.373 119.501 121.832C117.793 118.248 116.501 114.436 115.626 110.394C114.793 106.352 114.376 102.061 114.376 97.5192C114.376 90.1442 115.438 83.54 117.563 77.7067C119.73 71.8733 122.813 66.8942 126.813 62.7692C130.813 58.6025 135.501 55.4358 140.876 53.2692C146.251 51.1025 151.98 50.0192 158.063 50.0192C165.48 50.0192 172.084 51.4983 177.876 54.4567C183.668 57.415 188.105 61.0817 191.188 65.4567C194.272 69.79 195.813 73.8942 195.813 77.7692C195.813 79.8942 195.063 81.7692 193.563 83.3942C192.063 85.0192 190.251 85.8317 188.126 85.8317C185.751 85.8317 183.959 85.2692 182.751 84.1442C181.584 83.0192 180.272 81.0817 178.813 78.3317C176.397 73.79 173.543 70.3942 170.251 68.1442C167.001 65.8942 162.98 64.7692 158.188 64.7692C150.563 64.7692 144.48 67.665 139.938 73.4567C135.438 79.2483 133.188 87.4775 133.188 98.1442C133.188 105.269 134.188 111.207 136.188 115.957C138.188 120.665 141.022 124.186 144.688 126.519C148.355 128.852 152.647 130.019 157.563 130.019C162.897 130.019 167.397 128.707 171.063 126.082C174.772 123.415 177.563 119.519 179.438 114.394C180.23 111.977 181.209 110.019 182.376 108.519C183.543 106.977 185.418 106.207 188.001 106.207C190.209 106.207 192.105 106.977 193.688 108.519C195.272 110.061 196.063 111.977 196.063 114.269ZM211.563 134.394V60.3942C211.563 56.9775 212.313 54.3942 213.813 52.6442C215.355 50.8942 217.418 50.0192 220.001 50.0192C222.584 50.0192 224.668 50.8942 226.251 52.6442C227.834 54.3525 228.626 56.9358 228.626 60.3942V134.394C228.626 137.852 227.813 140.457 226.188 142.207C224.605 143.915 222.543 144.769 220.001 144.769C217.501 144.769 215.459 143.873 213.876 142.082C212.334 140.29 211.563 137.727 211.563 134.394ZM263.376 85.0817V134.394C263.376 137.811 262.563 140.394 260.938 142.144C259.313 143.894 257.251 144.769 254.751 144.769C252.251 144.769 250.209 143.873 248.626 142.082C247.084 140.29 246.313 137.727 246.313 134.394V85.5817C246.313 82.2067 247.084 79.665 248.626 77.9567C250.209 76.2483 252.251 75.3942 254.751 75.3942C257.251 75.3942 259.313 76.2483 260.938 77.9567C262.563 79.665 263.376 82.04 263.376 85.0817ZM254.938 67.4567C252.563 67.4567 250.522 66.7275 248.813 65.2692C247.147 63.8108 246.313 61.7483 246.313 59.0817C246.313 56.665 247.168 54.6858 248.876 53.1442C250.626 51.5608 252.647 50.7692 254.938 50.7692C257.147 50.7692 259.105 51.4775 260.813 52.8942C262.522 54.3108 263.376 56.3733 263.376 59.0817C263.376 61.7067 262.543 63.7692 260.876 65.2692C259.209 66.7275 257.23 67.4567 254.938 67.4567ZM296.563 84.8317V86.8942C299.563 82.9358 302.834 80.04 306.376 78.2067C309.959 76.3317 314.063 75.3942 318.688 75.3942C323.188 75.3942 327.209 76.3733 330.751 78.3317C334.293 80.29 336.938 83.0608 338.688 86.6442C339.813 88.7275 340.543 90.9775 340.876 93.3942C341.209 95.8108 341.376 98.8942 341.376 102.644V134.394C341.376 137.811 340.584 140.394 339.001 142.144C337.459 143.894 335.438 144.769 332.938 144.769C330.397 144.769 328.334 143.873 326.751 142.082C325.168 140.29 324.376 137.727 324.376 134.394V105.957C324.376 100.332 323.584 96.04 322.001 93.0817C320.459 90.0817 317.355 88.5817 312.688 88.5817C309.647 88.5817 306.876 89.4983 304.376 91.3317C301.876 93.1233 300.043 95.6025 298.876 98.7692C298.043 101.311 297.626 106.061 297.626 113.019V134.394C297.626 137.852 296.813 140.457 295.188 142.207C293.605 143.915 291.543 144.769 289.001 144.769C286.543 144.769 284.522 143.873 282.938 142.082C281.355 140.29 280.563 137.727 280.563 134.394V85.0817C280.563 81.8317 281.272 79.415 282.688 77.8317C284.105 76.2067 286.043 75.3942 288.501 75.3942C290.001 75.3942 291.355 75.7483 292.563 76.4567C293.772 77.165 294.73 78.2275 295.438 79.6442C296.188 81.0608 296.563 82.79 296.563 84.8317ZM375.501 85.0817V134.394C375.501 137.811 374.688 140.394 373.063 142.144C371.438 143.894 369.376 144.769 366.876 144.769C364.376 144.769 362.334 143.873 360.751 142.082C359.209 140.29 358.438 137.727 358.438 134.394V85.5817C358.438 82.2067 359.209 79.665 360.751 77.9567C362.334 76.2483 364.376 75.3942 366.876 75.3942C369.376 75.3942 371.438 76.2483 373.063 77.9567C374.688 79.665 375.501 82.04 375.501 85.0817ZM367.063 67.4567C364.688 67.4567 362.647 66.7275 360.938 65.2692C359.272 63.8108 358.438 61.7483 358.438 59.0817C358.438 56.665 359.293 54.6858 361.001 53.1442C362.751 51.5608 364.772 50.7692 367.063 50.7692C369.272 50.7692 371.23 51.4775 372.938 52.8942C374.647 54.3108 375.501 56.3733 375.501 59.0817C375.501 61.7067 374.668 63.7692 373.001 65.2692C371.334 66.7275 369.355 67.4567 367.063 67.4567ZM454.376 123.644C454.376 125.769 453.73 128.04 452.438 130.457C451.188 132.873 449.251 135.186 446.626 137.394C444.043 139.561 440.772 141.311 436.813 142.644C432.855 143.977 428.397 144.644 423.438 144.644C412.897 144.644 404.668 141.582 398.751 135.457C392.834 129.29 389.876 121.04 389.876 110.707C389.876 103.707 391.23 97.5192 393.938 92.1442C396.647 86.7692 400.563 82.6233 405.688 79.7067C410.813 76.7483 416.938 75.2692 424.063 75.2692C428.48 75.2692 432.522 75.915 436.188 77.2067C439.897 78.4983 443.022 80.165 445.563 82.2067C448.147 84.2483 450.105 86.4358 451.438 88.7692C452.813 91.0608 453.501 93.2067 453.501 95.2067C453.501 97.2483 452.73 98.9775 451.188 100.394C449.688 101.811 447.855 102.519 445.688 102.519C444.272 102.519 443.084 102.165 442.126 101.457C441.209 100.707 440.168 99.5192 439.001 97.8942C436.918 94.7275 434.73 92.3525 432.438 90.7692C430.188 89.1858 427.313 88.3942 423.813 88.3942C418.772 88.3942 414.709 90.3733 411.626 94.3317C408.543 98.2483 407.001 103.623 407.001 110.457C407.001 113.665 407.397 116.623 408.188 119.332C408.98 121.998 410.126 124.29 411.626 126.207C413.126 128.082 414.938 129.519 417.063 130.519C419.188 131.477 421.522 131.957 424.063 131.957C427.48 131.957 430.397 131.165 432.813 129.582C435.272 127.998 437.438 125.582 439.313 122.332C440.355 120.415 441.48 118.915 442.688 117.832C443.897 116.748 445.376 116.207 447.126 116.207C449.209 116.207 450.938 116.998 452.313 118.582C453.688 120.165 454.376 121.852 454.376 123.644Z" fill="black"/>
<path d="M90.2971 92.8422C90.2971 95.7588 89.5679 98.9255 88.1096 102.342C86.6929 105.717 84.4429 109.05 81.3596 112.342C78.2762 115.592 74.3387 118.238 69.5471 120.28C64.7554 122.321 59.1721 123.342 52.7971 123.342C47.9637 123.342 43.5679 122.884 39.6096 121.967C35.6512 121.05 32.0471 119.634 28.7971 117.717C25.5887 115.759 22.6304 113.196 19.9221 110.03C17.5054 107.155 15.4429 103.946 13.7346 100.405C12.0262 96.8213 10.7346 93.0088 9.85956 88.9672C9.02622 84.9255 8.60956 80.6338 8.60956 76.0922C8.60956 68.7172 9.67206 62.113 11.7971 56.2797C13.9637 50.4463 17.0471 45.4672 21.0471 41.3422C25.0471 37.1755 29.7346 34.0088 35.1096 31.8422C40.4846 29.6755 46.2137 28.5922 52.2971 28.5922C59.7137 28.5922 66.3179 30.0713 72.1096 33.0297C77.9012 35.988 82.3387 39.6547 85.4221 44.0297C88.5054 48.363 90.0471 52.4672 90.0471 56.3422C90.0471 58.4672 89.2971 60.3422 87.7971 61.9672C86.2971 63.5922 84.4846 64.4047 82.3596 64.4047C79.9846 64.4047 78.1929 63.8422 76.9846 62.7172C75.8179 61.5922 74.5054 59.6547 73.0471 56.9047C70.6304 52.363 67.7762 48.9672 64.4846 46.7172C61.2346 44.4672 57.2137 43.3422 52.4221 43.3422C44.7971 43.3422 38.7137 46.238 34.1721 52.0297C29.6721 57.8213 27.4221 66.0505 27.4221 76.7172C27.4221 83.8422 28.4221 89.7797 30.4221 94.5297C32.4221 99.238 35.2554 102.759 38.9221 105.092C42.5887 107.425 46.8804 108.592 51.7971 108.592C57.1304 108.592 61.6304 107.28 65.2971 104.655C69.0054 101.988 71.7971 98.0922 73.6721 92.9672C74.4637 90.5505 75.4429 88.5922 76.6096 87.0922C77.7762 85.5505 79.6512 84.7797 82.2346 84.7797C84.4429 84.7797 86.3387 85.5505 87.9221 87.0922C89.5054 88.6338 90.2971 90.5505 90.2971 92.8422Z" fill="black"/>
<path d="M9.71839 107.032C9.80381 104.116 10.6254 100.972 12.1832 97.5999C13.6981 94.2679 16.0447 91.0018 19.2231 87.8019C22.4003 84.6436 26.4136 82.1142 31.263 80.2137C36.1124 78.3132 41.7232 77.4564 48.0955 77.643C52.9268 77.7846 57.3073 78.3715 61.2371 79.4036C65.1669 80.4358 68.728 81.9574 71.9205 83.9685C75.0701 86.0199 77.9521 88.6679 80.5665 91.9126C82.898 94.8571 84.8656 98.1245 86.4695 101.715C88.0722 105.346 89.2517 109.195 90.0079 113.261C90.7225 117.325 91.0133 121.627 90.8803 126.167C90.6644 133.539 89.4089 140.109 87.114 145.877C84.7774 151.645 81.5496 156.532 77.4305 160.538C73.3102 164.585 68.532 167.613 63.0959 169.622C57.6597 171.63 51.9013 172.545 45.8206 172.367C38.4071 172.15 31.8491 170.478 26.1465 167.351C20.444 164.225 16.1157 160.43 13.1619 155.966C10.2067 151.544 8.78592 147.397 8.8994 143.523C8.96163 141.399 9.76622 139.547 11.3132 137.967C12.8601 136.386 14.6956 135.627 16.8197 135.69C19.1937 135.759 20.9681 136.374 22.143 137.534C23.2762 138.692 24.5314 140.668 25.9086 143.459C28.1912 148.07 30.9447 151.547 34.1691 153.893C37.3518 156.237 41.338 157.479 46.1276 157.62C53.7493 157.843 59.9148 155.127 64.6241 149.47C69.2918 143.813 71.7818 135.653 72.0942 124.991C72.3029 117.869 71.4772 111.905 69.6171 107.098C67.7559 102.334 65.0269 98.7312 61.4301 96.2915C57.8333 93.8518 53.5777 92.56 48.6631 92.416C43.3321 92.2598 38.7956 93.44 35.0536 95.9565C31.2688 98.5134 28.3642 102.326 26.3399 107.394C25.4778 109.786 24.4417 111.715 23.2316 113.18C22.0203 114.687 20.1236 115.403 17.5413 115.327C15.3339 115.262 13.4615 114.436 11.924 112.849C10.3865 111.262 9.65128 109.322 9.71839 107.032Z" fill="black"/>
</svg>
